<?xml version="1.0" encoding="us-ascii" standalone="no"?><svg xmlns="http://www.w3.org/2000/svg" xmlns:xlink="http://www.w3.org/1999/xlink" contentStyleType="text/css" height="795px" preserveAspectRatio="none" style="width:1736px;height:795px;background:#FFFFFF;" version="1.1" viewBox="0 0 1736 795" width="1736px" zoomAndPan="magnify"><defs/><g><rect fill="#FFFFFF" height="468.4688" style="stroke:#181818;stroke-width:1.0;" width="10" x="1503.5" y="236.9609"/><rect fill="#FFFFFF" height="204.6016" style="stroke:#181818;stroke-width:1.0;" width="10" x="1508.5" y="492.8281"/><rect fill="none" height="440.4688" style="stroke:#000000;stroke-width:1.5;" width="1719.5" x="10" y="256.9609"/><rect fill="none" height="177.6016" style="stroke:#000000;stroke-width:1.5;" width="1602" x="20" y="512.8281"/><line style="stroke:#181818;stroke-width:0.5;stroke-dasharray:5.0,5.0;" x1="150" x2="150" y1="81.2969" y2="714.4297"/><line style="stroke:#181818;stroke-width:0.5;stroke-dasharray:5.0,5.0;" x1="401" x2="401" y1="81.2969" y2="714.4297"/><line style="stroke:#181818;stroke-width:0.5;stroke-dasharray:5.0,5.0;" x1="771" x2="771" y1="81.2969" y2="714.4297"/><line style="stroke:#181818;stroke-width:0.5;stroke-dasharray:5.0,5.0;" x1="1075" x2="1075" y1="81.2969" y2="714.4297"/><line style="stroke:#181818;stroke-width:0.5;stroke-dasharray:5.0,5.0;" x1="1209" x2="1209" y1="81.2969" y2="714.4297"/><line style="stroke:#181818;stroke-width:0.5;stroke-dasharray:5.0,5.0;" x1="1340" x2="1340" y1="81.2969" y2="714.4297"/><line style="stroke:#181818;stroke-width:0.5;stroke-dasharray:5.0,5.0;" x1="1508" x2="1508" y1="81.2969" y2="714.4297"/><text fill="#000000" font-family="sans-serif" font-size="14" lengthAdjust="spacing" textLength="234" x="30" y="77.9951">Faculty of Computing's Students</text><ellipse cx="150" cy="13.5" fill="#E2E2F0" rx="8" ry="8" style="stroke:#181818;stroke-width:0.5;"/><path d="M150,21.5 L150,48.5 M137,29.5 L163,29.5 M150,48.5 L137,63.5 M150,48.5 L163,63.5 " fill="none" style="stroke:#181818;stroke-width:0.5;"/><text fill="#000000" font-family="sans-serif" font-size="14" lengthAdjust="spacing" textLength="234" x="30" y="726.4248">Faculty of Computing's Students</text><ellipse cx="150" cy="738.2266" fill="#E2E2F0" rx="8" ry="8" style="stroke:#181818;stroke-width:0.5;"/><path d="M150,746.2266 L150,773.2266 M137,754.2266 L163,754.2266 M150,773.2266 L137,788.2266 M150,773.2266 L163,788.2266 " fill="none" style="stroke:#181818;stroke-width:0.5;"/><text fill="#000000" font-family="sans-serif" font-size="14" lengthAdjust="spacing" textLength="237" x="280" y="77.9951">Faculty of Computing's Lecturers</text><ellipse cx="401.5" cy="13.5" fill="#E2E2F0" rx="8" ry="8" style="stroke:#181818;stroke-width:0.5;"/><path d="M401.5,21.5 L401.5,48.5 M388.5,29.5 L414.5,29.5 M401.5,48.5 L388.5,63.5 M401.5,48.5 L414.5,63.5 " fill="none" style="stroke:#181818;stroke-width:0.5;"/><text fill="#000000" font-family="sans-serif" font-size="14" lengthAdjust="spacing" textLength="237" x="280" y="726.4248">Faculty of Computing's Lecturers</text><ellipse cx="401.5" cy="738.2266" fill="#E2E2F0" rx="8" ry="8" style="stroke:#181818;stroke-width:0.5;"/><path d="M401.5,746.2266 L401.5,773.2266 M388.5,754.2266 L414.5,754.2266 M401.5,773.2266 L388.5,788.2266 M401.5,773.2266 L414.5,788.2266 " fill="none" style="stroke:#181818;stroke-width:0.5;"/><text fill="#000000" font-family="sans-serif" font-size="14" lengthAdjust="spacing" textLength="470" x="533" y="77.9951">Faculty of Computing's Student Representative Council Members</text><ellipse cx="771" cy="13.5" fill="#E2E2F0" rx="8" ry="8" style="stroke:#181818;stroke-width:0.5;"/><path d="M771,21.5 L771,48.5 M758,29.5 L784,29.5 M771,48.5 L758,63.5 M771,48.5 L784,63.5 " fill="none" style="stroke:#181818;stroke-width:0.5;"/><text fill="#000000" font-family="sans-serif" font-size="14" lengthAdjust="spacing" textLength="470" x="533" y="726.4248">Faculty of Computing's Student Representative Council Members</text><ellipse cx="771" cy="738.2266" fill="#E2E2F0" rx="8" ry="8" style="stroke:#181818;stroke-width:0.5;"/><path d="M771,746.2266 L771,773.2266 M758,754.2266 L784,754.2266 M771,773.2266 L758,788.2266 M771,773.2266 L784,788.2266 " fill="none" style="stroke:#181818;stroke-width:0.5;"/><text fill="#000000" font-family="sans-serif" font-size="14" lengthAdjust="spacing" textLength="107" x="1019" y="77.9951">Administrators</text><ellipse cx="1075.5" cy="13.5" fill="#E2E2F0" rx="8" ry="8" style="stroke:#181818;stroke-width:0.5;"/><path d="M1075.5,21.5 L1075.5,48.5 M1062.5,29.5 L1088.5,29.5 M1075.5,48.5 L1062.5,63.5 M1075.5,48.5 L1088.5,63.5 " fill="none" style="stroke:#181818;stroke-width:0.5;"/><text fill="#000000" font-family="sans-serif" font-size="14" lengthAdjust="spacing" textLength="107" x="1019" y="726.4248">Administrators</text><ellipse cx="1075.5" cy="738.2266" fill="#E2E2F0" rx="8" ry="8" style="stroke:#181818;stroke-width:0.5;"/><path d="M1075.5,746.2266 L1075.5,773.2266 M1062.5,754.2266 L1088.5,754.2266 M1075.5,773.2266 L1062.5,788.2266 M1075.5,773.2266 L1088.5,788.2266 " fill="none" style="stroke:#181818;stroke-width:0.5;"/><text fill="#000000" font-family="sans-serif" font-size="14" lengthAdjust="spacing" textLength="128" x="1142" y="77.9951">Registration Page</text><path d="M1188.5,37 L1188.5,61 M1188.5,49 L1205.5,49 " fill="none" style="stroke:#181818;stroke-width:0.5;"/><ellipse cx="1217.5" cy="49" fill="#E2E2F0" rx="12" ry="12" style="stroke:#181818;stroke-width:0.5;"/><text fill="#000000" font-family="sans-serif" font-size="14" lengthAdjust="spacing" textLength="128" x="1142" y="726.4248">Registration Page</text><path d="M1188.5,733.7266 L1188.5,757.7266 M1188.5,745.7266 L1205.5,745.7266 " fill="none" style="stroke:#181818;stroke-width:0.5;"/><ellipse cx="1217.5" cy="745.7266" fill="#E2E2F0" rx="12" ry="12" style="stroke:#181818;stroke-width:0.5;"/><text fill="#000000" font-family="sans-serif" font-size="14" lengthAdjust="spacing" textLength="103" x="1286" y="77.9951">User Database</text><ellipse cx="1340.5" cy="49" fill="#E2E2F0" rx="12" ry="12" style="stroke:#181818;stroke-width:0.5;"/><line style="stroke:#181818;stroke-width:0.5;" x1="1328.5" x2="1352.5" y1="63" y2="63"/><text fill="#000000" font-family="sans-serif" font-size="14" lengthAdjust="spacing" textLength="103" x="1286" y="726.4248">User Database</text><ellipse cx="1340.5" cy="745.7266" fill="#E2E2F0" rx="12" ry="12" style="stroke:#181818;stroke-width:0.5;"/><line style="stroke:#181818;stroke-width:0.5;" x1="1328.5" x2="1352.5" y1="759.7266" y2="759.7266"/><text fill="#000000" font-family="sans-serif" font-size="14" lengthAdjust="spacing" textLength="201" x="1405" y="77.9951">User Registration Controller</text><ellipse cx="1508.5" cy="49" fill="#E2E2F0" rx="12" ry="12" style="stroke:#181818;stroke-width:0.5;"/><polygon fill="#181818" points="1504.5,37,1510.5,32,1508.5,37,1510.5,42,1504.5,37" style="stroke:#181818;stroke-width:1.0;"/><text fill="#000000" font-family="sans-serif" font-size="14" lengthAdjust="spacing" textLength="201" x="1405" y="726.4248">User Registration Controller</text><ellipse cx="1508.5" cy="745.7266" fill="#E2E2F0" rx="12" ry="12" style="stroke:#181818;stroke-width:0.5;"/><polygon fill="#181818" points="1504.5,733.7266,1510.5,728.7266,1508.5,733.7266,1510.5,738.7266,1504.5,733.7266" style="stroke:#181818;stroke-width:1.0;"/><rect fill="#FFFFFF" height="468.4688" style="stroke:#181818;stroke-width:1.0;" width="10" x="1503.5" y="236.9609"/><rect fill="#FFFFFF" height="204.6016" style="stroke:#181818;stroke-width:1.0;" width="10" x="1508.5" y="492.8281"/><polygon fill="#181818" points="1197,108.4297,1207,112.4297,1197,116.4297,1201,112.4297" style="stroke:#181818;stroke-width:1.0;"/><line style="stroke:#181818;stroke-width:1.0;" x1="150" x2="1203" y1="112.4297" y2="112.4297"/><text fill="#000000" font-family="sans-serif" font-size="13" lengthAdjust="spacing" textLength="117" x="157" y="107.3638">Clicks on "Sign up"</text><polygon fill="#181818" points="161,137.5625,151,141.5625,161,145.5625,157,141.5625" style="stroke:#181818;stroke-width:1.0;"/><line style="stroke:#181818;stroke-width:1.0;stroke-dasharray:2.0,2.0;" x1="155" x2="1208" y1="141.5625" y2="141.5625"/><text fill="#000000" font-family="sans-serif" font-size="13" lengthAdjust="spacing" textLength="167" x="167" y="136.4966">Displays registration page</text><polygon fill="#181818" points="1496.5,166.6953,1506.5,170.6953,1496.5,174.6953,1500.5,170.6953" style="stroke:#181818;stroke-width:1.0;"/><line style="stroke:#181818;stroke-width:1.0;" x1="150" x2="1502.5" y1="170.6953" y2="170.6953"/><text fill="#000000" font-family="sans-serif" font-size="13" lengthAdjust="spacing" textLength="141" x="157" y="165.6294">Fills in required details</text><polygon fill="#181818" points="1496.5,195.8281,1506.5,199.8281,1496.5,203.8281,1500.5,199.8281" style="stroke:#181818;stroke-width:1.0;"/><line style="stroke:#181818;stroke-width:1.0;" x1="150" x2="1502.5" y1="199.8281" y2="199.8281"/><text fill="#000000" font-family="sans-serif" font-size="13" lengthAdjust="spacing" textLength="163" x="157" y="194.7622">Clicks on "Sign up" button</text><line style="stroke:#181818;stroke-width:1.0;" x1="1508.5" x2="1555.5" y1="223.9609" y2="223.9609"/><line style="stroke:#181818;stroke-width:1.0;" x1="1555.5" x2="1555.5" y1="223.9609" y2="236.9609"/><line style="stroke:#181818;stroke-width:1.0;" x1="1514.5" x2="1555.5" y1="236.9609" y2="236.9609"/><polygon fill="#181818" points="1524.5,232.9609,1514.5,236.9609,1524.5,240.9609,1520.5,236.9609" style="stroke:#181818;stroke-width:1.0;"/><text fill="#000000" font-family="sans-serif" font-size="13" lengthAdjust="spacing" textLength="171" x="1520.5" y="218.895">Validates registration form</text><path d="M10,256.9609 L76,256.9609 L76,264.0938 L66,274.0938 L10,274.0938 L10,256.9609 " fill="#EEEEEE" style="stroke:#000000;stroke-width:1.5;"/><rect fill="none" height="440.4688" style="stroke:#000000;stroke-width:1.5;" width="1719.5" x="10" y="256.9609"/><text fill="#000000" font-family="sans-serif" font-size="13" font-weight="bold" lengthAdjust="spacing" textLength="21" x="25" y="270.0278">alt</text><text fill="#000000" font-family="sans-serif" font-size="11" font-weight="bold" lengthAdjust="spacing" textLength="93" x="91" y="269.1714">[Valid details]</text><polygon fill="#181818" points="1351.5,291.2266,1341.5,295.2266,1351.5,299.2266,1347.5,295.2266" style="stroke:#181818;stroke-width:1.0;"/><line style="stroke:#181818;stroke-width:1.0;" x1="1345.5" x2="1502.5" y1="295.2266" y2="295.2266"/><text fill="#000000" font-family="sans-serif" font-size="13" lengthAdjust="spacing" textLength="112" x="1357.5" y="290.1606">Add user account</text><polygon fill="#181818" points="1491.5,320.3594,1501.5,324.3594,1491.5,328.3594,1495.5,324.3594" style="stroke:#181818;stroke-width:1.0;"/><line style="stroke:#181818;stroke-width:1.0;stroke-dasharray:2.0,2.0;" x1="1340.5" x2="1497.5" y1="324.3594" y2="324.3594"/><text fill="#000000" font-family="sans-serif" font-size="13" lengthAdjust="spacing" textLength="128" x="1347.5" y="319.2935">User account added</text><polygon fill="#181818" points="161,349.4922,151,353.4922,161,357.4922,157,353.4922" style="stroke:#181818;stroke-width:1.0;"/><line style="stroke:#181818;stroke-width:1.0;stroke-dasharray:2.0,2.0;" x1="155" x2="1502.5" y1="353.4922" y2="353.4922"/><text fill="#000000" font-family="sans-serif" font-size="13" lengthAdjust="spacing" textLength="147" x="167" y="348.4263">Redirects to login page</text><line style="stroke:#000000;stroke-width:1.0;stroke-dasharray:2.0,2.0;" x1="10" x2="1729.5" y1="362.4922" y2="362.4922"/><text fill="#000000" font-family="sans-serif" font-size="11" font-weight="bold" lengthAdjust="spacing" textLength="103" x="15" y="372.7026">[Invalid details]</text><polygon fill="#181818" points="161,393.4297,151,397.4297,161,401.4297,157,397.4297" style="stroke:#181818;stroke-width:1.0;"/><line style="stroke:#181818;stroke-width:1.0;stroke-dasharray:2.0,2.0;" x1="155" x2="1502.5" y1="397.4297" y2="397.4297"/><text fill="#000000" font-family="sans-serif" font-size="13" lengthAdjust="spacing" textLength="212" x="167" y="392.3638">Displays invalid sign up message</text><polygon fill="#181818" points="1220,422.5625,1210,426.5625,1220,430.5625,1216,426.5625" style="stroke:#181818;stroke-width:1.0;"/><line style="stroke:#181818;stroke-width:1.0;stroke-dasharray:2.0,2.0;" x1="1214" x2="1502.5" y1="426.5625" y2="426.5625"/><text fill="#000000" font-family="sans-serif" font-size="13" lengthAdjust="spacing" textLength="180" x="1226" y="421.4966">Displays sign-up page again</text><polygon fill="#181818" points="1491.5,451.6953,1501.5,455.6953,1491.5,459.6953,1495.5,455.6953" style="stroke:#181818;stroke-width:1.0;"/><line style="stroke:#181818;stroke-width:1.0;" x1="150" x2="1497.5" y1="455.6953" y2="455.6953"/><text fill="#000000" font-family="sans-serif" font-size="13" lengthAdjust="spacing" textLength="158" x="157" y="450.6294">Re-enters correct details</text><line style="stroke:#181818;stroke-width:1.0;" x1="1513.5" x2="1560.5" y1="479.8281" y2="479.8281"/><line style="stroke:#181818;stroke-width:1.0;" x1="1560.5" x2="1560.5" y1="479.8281" y2="492.8281"/><line style="stroke:#181818;stroke-width:1.0;" x1="1519.5" x2="1560.5" y1="492.8281" y2="492.8281"/><polygon fill="#181818" points="1529.5,488.8281,1519.5,492.8281,1529.5,496.8281,1525.5,492.8281" style="stroke:#181818;stroke-width:1.0;"/><text fill="#000000" font-family="sans-serif" font-size="13" lengthAdjust="spacing" textLength="192" x="1525.5" y="474.7622">Re-validates registration form</text><path d="M20,512.8281 L86,512.8281 L86,519.9609 L76,529.9609 L20,529.9609 L20,512.8281 " fill="#EEEEEE" style="stroke:#000000;stroke-width:1.5;"/><rect fill="none" height="177.6016" style="stroke:#000000;stroke-width:1.5;" width="1602" x="20" y="512.8281"/><text fill="#000000" font-family="sans-serif" font-size="13" font-weight="bold" lengthAdjust="spacing" textLength="21" x="35" y="525.895">alt</text><text fill="#000000" font-family="sans-serif" font-size="11" font-weight="bold" lengthAdjust="spacing" textLength="143" x="101" y="525.0386">[Valid details (Retry)]</text><polygon fill="#181818" points="1351.5,547.0938,1341.5,551.0938,1351.5,555.0938,1347.5,551.0938" style="stroke:#181818;stroke-width:1.0;"/><line style="stroke:#181818;stroke-width:1.0;" x1="1345.5" x2="1507.5" y1="551.0938" y2="551.0938"/><text fill="#000000" font-family="sans-serif" font-size="13" lengthAdjust="spacing" textLength="112" x="1357.5" y="546.0278">Add user account</text><polygon fill="#181818" points="1496.5,576.2266,1506.5,580.2266,1496.5,584.2266,1500.5,580.2266" style="stroke:#181818;stroke-width:1.0;"/><line style="stroke:#181818;stroke-width:1.0;stroke-dasharray:2.0,2.0;" x1="1340.5" x2="1502.5" y1="580.2266" y2="580.2266"/><text fill="#000000" font-family="sans-serif" font-size="13" lengthAdjust="spacing" textLength="128" x="1347.5" y="575.1606">User account added</text><polygon fill="#181818" points="161,605.3594,151,609.3594,161,613.3594,157,609.3594" style="stroke:#181818;stroke-width:1.0;"/><line style="stroke:#181818;stroke-width:1.0;stroke-dasharray:2.0,2.0;" x1="155" x2="1507.5" y1="609.3594" y2="609.3594"/><text fill="#000000" font-family="sans-serif" font-size="13" lengthAdjust="spacing" textLength="147" x="167" y="604.2935">Redirects to login page</text><line style="stroke:#000000;stroke-width:1.0;stroke-dasharray:2.0,2.0;" x1="20" x2="1622" y1="618.3594" y2="618.3594"/><text fill="#000000" font-family="sans-serif" font-size="11" font-weight="bold" lengthAdjust="spacing" textLength="153" x="25" y="628.5698">[Invalid details (Retry)]</text><polygon fill="#181818" points="161,649.2969,151,653.2969,161,657.2969,157,653.2969" style="stroke:#181818;stroke-width:1.0;"/><line style="stroke:#181818;stroke-width:1.0;stroke-dasharray:2.0,2.0;" x1="155" x2="1507.5" y1="653.2969" y2="653.2969"/><text fill="#000000" font-family="sans-serif" font-size="13" lengthAdjust="spacing" textLength="212" x="167" y="648.231">Displays invalid sign up message</text><polygon fill="#181818" points="1220,678.4297,1210,682.4297,1220,686.4297,1216,682.4297" style="stroke:#181818;stroke-width:1.0;"/><line style="stroke:#181818;stroke-width:1.0;stroke-dasharray:2.0,2.0;" x1="1214" x2="1507.5" y1="682.4297" y2="682.4297"/><text fill="#000000" font-family="sans-serif" font-size="13" lengthAdjust="spacing" textLength="180" x="1226" y="677.3638">Displays sign-up page again</text><!--SRC=[hLFBRjim4BppAnQwf3tu1tm8K3W8KA012XdfVKrk1A8KgP9B0_xxBYNPKVsGLIG-YSkPsLdk63M72DKpwkpu0E4DDg7jCblVF2JOSZRaELM0fuF2MSeFqfmZnO5pFDqXZT9GKnSfoHUotPD0ijVMmGkrkwFYjjwCOjzCQxrD755EIQcTe0t60rGrDKFT1Wy_iQ6UEQsMef8-LhnKhuaYF27Z3jC0BPLZGUdWEGOtulxHtWnNZk95X_ShfOxZhHulJAnXuwp-dK3KggrjFEIkKkSeM0brL5d3aqsTmqE2EFNIbP5kjNftiuPdwrm2wuN-9zj81WmnMfSMiQ_OXLrc3bvTfyo9_K9d3JATZV8MOglAbkrUBcyzApeU14x-GNwtJKoNkfRq6CXbeQYr18TxyXJIl_ajuwyJ9g0nP6QRJxTNav57rvo00xZGs75rvAJdTxzVFD7LIDXH80sxWPPIAkftX2vZUL8iIYjHAYO16xHUzMeBibBJIX3opmKTOfbvuQPczFPpYIcgzrBJOywJ0rzgudZusjz-E4MVaQIFfgdmhoLgyQJ_dQvFJLXltmzFOUZUJWNv5m00]--></g></svg>