<?xml version="1.0"?>
<svg xmlns="http://www.w3.org/2000/svg" xmlns:xlink="http://www.w3.org/1999/xlink" version="1.1" id="Layer_1" x="0px" y="0px" viewBox="0 0 511.999 511.999" style="enable-background:new 0 0 511.999 511.999;" xml:space="preserve" width="512px" height="512px"><g><g>
	<g>
		<path d="M291.546,329.332c-14.35,0-26.025,11.675-26.025,26.025c0,14.351,11.675,26.026,26.025,26.026    c14.351,0,26.026-11.675,26.026-26.026C317.572,341.006,305.897,329.332,291.546,329.332z M291.546,364.718    c-5.162,0-9.36-4.2-9.36-9.361c0-5.162,4.198-9.36,9.36-9.36c5.162,0,9.361,4.2,9.361,9.36S296.709,364.718,291.546,364.718z" data-original="#000000" class="active-path" data-old_color="#464545" fill="#444444"/>
	</g>
</g><g>
	<g>
		<path d="M426.185,49.424l3.547-10.443c1.48-4.357-0.852-9.089-5.208-10.57c-4.353-1.48-9.09,0.851-10.571,5.209l-3.543,10.428    c-6.099-0.508-12.244,0.646-17.877,3.422c-8.186,4.036-14.311,11.017-17.244,19.656l-32.688,96.204h-10.072L330.826,42.46    c-0.158-11.239-9.429-20.383-20.67-20.383c-11.239,0-20.513,9.143-20.671,20.382l-1.703,120.87h-19.087V66.029    c0-1.653-0.491-3.267-1.412-4.641L228.598,3.693C227.051,1.385,224.457,0,221.678,0c-2.779,0-5.374,1.385-6.92,3.693    l-38.682,57.696c-0.92,1.373-1.412,2.987-1.412,4.641v97.299h-20.344c-4.603,0-8.332,3.731-8.332,8.332    c0,4.602,3.73,8.332,8.332,8.332h1.676v28.1h-32.216c-29.546,0-53.582,24.036-53.582,53.582v122.133    c0,29.546,24.037,53.582,53.582,53.582h32.216v26.332c0,26.619,21.657,48.276,48.276,48.276h175.645    c26.619,0,48.276-21.657,48.276-48.276V179.994h1.677c4.603,0,8.332-3.731,8.332-8.332c0-4.602-3.73-8.332-8.332-8.332h-15.104    l25.221-74.222C445.118,73.99,439.018,57.724,426.185,49.424z M155.994,389.639h-29.218c-4.868,0-8.828-3.96-8.828-8.828V264.675    c0-4.867,3.96-8.828,8.828-8.828h29.218V389.639z M155.994,239.182h-29.218c-14.056,0-25.493,11.435-25.493,25.493v116.136    c0,14.056,11.437,25.493,25.493,25.493h29.218v14.423h-32.216c-20.357,0-36.917-16.56-36.917-36.917V261.676    c0-20.357,16.56-36.917,36.917-36.917h32.216V239.182z M372.037,128.496l33.136,11.259l-8.01,23.574h-36.96L372.037,128.496z     M306.147,42.694c0.031-2.18,1.829-3.953,4.008-3.953c2.18,0,3.977,1.772,4.007,3.952l1.7,120.636h-11.417L306.147,42.694z     M293.477,179.994c0.472,0.15,0.959,0.252,1.454,0.316v94.785c0,4.548-3.7,8.248-8.248,8.248c-4.548,0-8.248-3.7-8.248-8.248    v-26.847c0-13.737-11.177-24.913-24.913-24.913c-13.736,0-24.913,11.175-24.913,24.913v52.048c0,4.548-3.701,8.248-8.249,8.248    s-8.248-3.7-8.248-8.248V179.994H293.477z M252.028,163.329H230.01V82.002c7.437-0.583,14.822-1.955,22.018-4.103V163.329z     M221.678,23.296l8.287,12.361c-2.663,0.808-5.449,1.224-8.286,1.224c-2.84,0-5.626-0.415-8.289-1.223L221.678,23.296z     M203.866,49.863c5.589,2.405,11.621,3.682,17.814,3.682c6.188,0,12.22-1.278,17.81-3.683l8.031,11.979    c-16.816,5.082-34.871,5.082-51.688,0L203.866,49.863z M191.327,77.899c7.196,2.149,14.58,3.52,22.018,4.103v81.326h-22.018    V77.899z M411.529,463.723h-0.002c0,17.43-14.181,31.611-31.611,31.611H204.271c-17.43,0-31.611-14.181-31.611-31.611V179.994    h22.789v120.302c0,13.737,11.177,24.913,24.914,24.913c13.736,0,24.913-11.175,24.913-24.913v-52.048    c0-4.548,3.7-8.248,8.248-8.248c4.548,0,8.248,3.7,8.248,8.248v26.847c0,13.737,11.177,24.913,24.913,24.913    c13.736,0,24.913-11.175,24.913-24.913v-94.71l99.931-0.392V463.723z M424.205,83.746l-13.67,40.23l-33.136-11.259l13.669-40.231    c1.504-4.426,4.641-8.002,8.835-10.069c4.192-2.068,8.937-2.378,13.357-0.874C422.4,64.646,427.308,74.607,424.205,83.746z" data-original="#000000" class="active-path" data-old_color="#464545" fill="#444444"/>
	</g>
</g></g> </svg>
