<?xml version="1.0"?>
<svg xmlns="http://www.w3.org/2000/svg" xmlns:xlink="http://www.w3.org/1999/xlink" version="1.1" id="Capa_1" x="0px" y="0px" viewBox="0 0 480 480" style="enable-background:new 0 0 480 480;" xml:space="preserve" width="512px" height="512px"><g><g>
	<g>
		<path d="M472,88H352V40c0-22.056-17.944-40-40-40H168c-22.056,0-40,17.944-40,40v48H8c-4.424,0-8,3.584-8,8v104v240    c0,22.056,17.944,40,40,40h400c22.056,0,40-17.944,40-40V200V96C480,91.584,476.424,88,472,88z M144,40c0-13.232,10.768-24,24-24    h144c13.232,0,24,10.768,24,24v48h-16V40c0-4.416-3.576-8-8-8H168c-4.424,0-8,3.584-8,8v48h-16V40z M304,48v40H176V48H304z     M136,368v96h-32v-96c0-2.376-1.056-4.624-2.872-6.144L56,324.256V283.84l24-19.2V304c0,2.52,1.184,4.888,3.2,6.4l32,24    c2.84,2.136,6.752,2.136,9.592,0l32-24c2.016-1.504,3.2-3.88,3.2-6.4v-39.352l24,19.2v40.408l-45.128,37.6    C137.056,363.376,136,365.624,136,368z M304,464h-80v-16h80V464z M253.656,322.344l-12.672-12.672L254.032,264h19.936    l13.048,45.672l-12.672,12.672C272.84,323.84,272,325.88,272,328v104h-16V328C256,325.88,255.16,323.84,253.656,322.344z M416,464    h-24v-16h-16v16h-24v-12.688l29.656-29.656c1.56-1.56,2.344-3.608,2.344-5.656c0,2.048,0.784,4.096,2.344,5.656L416,451.312V464z     M376,404.688l-24-24v-65.376L371.312,296H376V404.688z M464,440c0,13.232-10.768,24-24,24h-8v-16c0-2.12-0.84-4.16-2.344-5.656    L403.312,416l26.344-26.344C431.16,388.16,432,386.12,432,384v-72c0-2.12-0.84-4.16-2.344-5.656l-24-24    C404.16,280.84,402.128,280,400,280h-16h-16c-2.128,0-4.16,0.84-5.656,2.344l-24,24C336.84,307.84,336,309.88,336,312v72    c0,2.12,0.84,4.16,2.344,5.656L364.688,416l-26.344,26.344C336.84,443.84,336,445.88,336,448v16h-16v-24c0-4.416-3.576-8-8-8h-24    V331.312l13.656-13.656c2.056-2.056,2.832-5.056,2.04-7.856l-16-56c-0.984-3.432-4.128-5.8-7.696-5.8h-32    c-3.568,0-6.712,2.368-7.696,5.8l-16,56c-0.8,2.8-0.016,5.8,2.04,7.856L240,331.312V432h-24c-4.424,0-8,3.584-8,8v24h-56v-92.256    l45.128-37.6c1.816-1.52,2.872-3.768,2.872-6.144v-48c0-2.432-1.104-4.728-3-6.248l-40-32c-2.408-1.92-5.704-2.288-8.472-0.968    C145.768,242.12,144,244.928,144,248v52l-24,18l-24-18v-52c0-3.072-1.768-5.88-4.528-7.208c-2.784-1.32-6.064-0.96-8.472,0.968    l-40,32c-1.896,1.512-3,3.808-3,6.24v48c0,2.376,1.056,4.624,2.872,6.144L88,371.744V464H40c-13.232,0-24-10.768-24-24V208h448    V440z M392,404.688V296h4.688L416,315.312v65.376L392,404.688z M464,192H16v-88h120h32h144h32h120V192z" data-original="#000000" class="active-path" data-old_color="#9E3F3F" fill="#444444"/>
	</g>
</g><g>
	<g>
		<rect x="200" y="152" width="16" height="16" data-original="#000000" class="active-path" data-old_color="#9E3F3F" fill="#444444"/>
	</g>
</g><g>
	<g>
		<rect x="232" y="152" width="16" height="16" data-original="#000000" class="active-path" data-old_color="#9E3F3F" fill="#444444"/>
	</g>
</g><g>
	<g>
		<rect x="264" y="152" width="16" height="16" data-original="#000000" class="active-path" data-old_color="#9E3F3F" fill="#444444"/>
	</g>
</g></g> </svg>
