<svg fill="none" height="15" viewBox="0 0 15 15" width="15" xmlns="http://www.w3.org/2000/svg" xmlns:xlink="http://www.w3.org/1999/xlink"><clipPath id="a"><path d="m.5.5h14v14h-14z"/></clipPath><g clip-path="url(#a)" stroke="#4147d5"><path d="m1.45987 10.7685c.15413 1.4407 1.31283 2.5994 2.75279 2.7599 1.06955.1192 2.16771.2216 3.28734.2216s2.21779-.1024 3.2873-.2216c1.44-.1605 2.5987-1.3192 2.7528-2.7599.1138-1.06348.2099-2.15535.2099-3.2685 0-1.11316-.0961-2.20502-.2099-3.26853-.1541-1.44065-1.3128-2.59936-2.7528-2.75986-1.06951-.11922-2.16767-.22161-3.2873-.22161s-2.21779.10239-3.28734.22161c-1.43996.1605-2.59866 1.31921-2.75279 2.75986-.11379 1.06351-.20987 2.15537-.20987 3.26853 0 1.11315.09608 2.20502.20987 3.2685z" fill="#d7e0ff"/><g stroke-linecap="round" stroke-linejoin="round"><path d="m7.50073 7.95421c0-.36105.29365-.58252.81174-.92869.48054-.3211.73402-.73762.62127-1.30446-.11275-.56685-.58112-1.03521-1.14796-1.14797-.8898-.17699-1.74611.52576-1.74611 1.43298"/><path d="m7.5 10.4541v-.25"/></g></g></svg>