<svg viewBox="0 0 400 300" xmlns="http://www.w3.org/2000/svg"><rect fill="#68e1fd" height="100.05" rx="8.56" width="146.82" x="149.38" y="83.75"/><path d="m287.63 184.8h-129.63a9.58 9.58 0 0 1 -9.57-9.57v-82.92a9.57 9.57 0 0 1 9.57-9.56h129.63a9.57 9.57 0 0 1 9.57 9.56v82.92a9.58 9.58 0 0 1 -9.57 9.57zm-129.63-100.05a7.58 7.58 0 0 0 -7.57 7.56v82.92a7.58 7.58 0 0 0 7.57 7.57h129.63a7.58 7.58 0 0 0 7.57-7.57v-82.92a7.57 7.57 0 0 0 -7.57-7.56z" fill="#093f68"/><path d="m246.25 205.31h-46.92l4.9-21.51h37.12z" fill="#68e1fd"/><path d="m246.25 206.31h-46.92a1 1 0 0 1 -.78-.38 1 1 0 0 1 -.19-.84l4.89-21.51a1 1 0 0 1 1-.78h37.12a1 1 0 0 1 1 .78l4.89 21.51a1 1 0 0 1 -.19.84 1 1 0 0 1 -.82.38zm-45.67-2h44.42l-4.44-19.51h-35.56z" fill="#093f68"/><path d="m159.39 92.09h126.8v74.25h-126.8z" fill="#fff"/><path d="m286.19 167.34h-126.8a1 1 0 0 1 -1-1v-74.25a1 1 0 0 1 1-1h126.8a1 1 0 0 1 1 1v74.25a1 1 0 0 1 -1 1zm-125.8-2h124.8v-72.25h-124.8z" fill="#093f68"/><rect fill="#68e1fd" height="8.04" rx="4.02" width="66.47" x="189.55" y="205.31"/><path d="m252 214.35h-58.42a5 5 0 1 1 0-10h58.42a5 5 0 0 1 0 10zm-58.43-8a3 3 0 1 0 0 6h58.43a3 3 0 1 0 0-6z" fill="#093f68"/><path d="m285.6 102.34h-125.6a1 1 0 0 1 0-2h125.6a1 1 0 0 1 0 2z" fill="#093f68"/><circle cx="166.24" cy="96.79" fill="#ffbc0e" r="1.95"/><circle cx="173.8" cy="96.79" fill="#093f68" r="1.95"/><circle cx="181.36" cy="96.79" fill="#093f68" r="1.95"/><path d="m173.8 107.36h54.08v21.86h-54.08z" fill="#ffbc0e"/><path d="m227.88 130.21h-54.08a1 1 0 0 1 -1-1v-21.85a1 1 0 0 1 1-1h54.08a1 1 0 0 1 1 1v21.85a1 1 0 0 1 -1 1zm-53.08-2h52.08v-19.85h-52.08z" fill="#093f68"/><path d="m173.8 130.21a1 1 0 0 1 -.77-.36 1 1 0 0 1 .14-1.41l17.75-14.59a1 1 0 0 1 1.27 0l14.12 11.76a1 1 0 1 1 -1.28 1.54l-13.48-11.24-17.12 14.09a1 1 0 0 1 -.63.21z" fill="#093f68"/><path d="m227.88 130.21a1.05 1.05 0 0 1 -.62-.21l-16-12.68-8.13 7.17a1 1 0 0 1 -1.32-1.5l8.75-7.73a1 1 0 0 1 1.28 0l16.65 13.2a1 1 0 0 1 -.63 1.78z" fill="#093f68"/><path d="m269.36 109.35h-31a1 1 0 0 1 0-2h31a1 1 0 0 1 0 2z" fill="#dfeaef"/><path d="m269.36 118.19h-31a1 1 0 1 1 0-2h31a1 1 0 0 1 0 2z" fill="#dfeaef"/><path d="m262.77 127h-24.43a1 1 0 0 1 0-2h24.43a1 1 0 0 1 0 2z" fill="#dfeaef"/><path d="m173.8 136.49h23.06v16.21h-23.06z" fill="#70cc40"/><path d="m196.86 153.7h-23.06a1 1 0 0 1 -1-1v-16.21a1 1 0 0 1 1-1h23.06a1 1 0 0 1 1 1v16.21a1 1 0 0 1 -1 1zm-22.06-2h21.06v-14.21h-21.06z" fill="#093f68"/><path d="m210.92 136.49h23.06v16.21h-23.06z" fill="#70cc40"/><path d="m234 153.7h-23.08a1 1 0 0 1 -1-1v-16.21a1 1 0 0 1 1-1h23.08a1 1 0 0 1 1 1v16.21a1 1 0 0 1 -1 1zm-22.06-2h21.06v-14.21h-21.08z" fill="#093f68"/><path d="m248.04 136.49h23.06v16.21h-23.06z" fill="#70cc40"/><path d="m271.1 153.7h-23.1a1 1 0 0 1 -1-1v-16.21a1 1 0 0 1 1-1h23.1a1 1 0 0 1 1 1v16.21a1 1 0 0 1 -1 1zm-22.06-2h21.06v-14.21h-21.1z" fill="#093f68"/><path d="m190.3 161.27h-9.93a1 1 0 0 1 0-2h9.93a1 1 0 0 1 0 2z" fill="#dfeaef"/><path d="m227.42 161.27h-9.94a1 1 0 0 1 0-2h9.94a1 1 0 0 1 0 2z" fill="#dfeaef"/><path d="m264.54 161.27h-9.94a1 1 0 0 1 0-2h9.94a1 1 0 0 1 0 2z" fill="#dfeaef"/><rect fill="#68e1fd" height="101.88" rx="5.33" width="65.71" x="99.48" y="111.49"/><path d="m159.85 214.37h-55a6.35 6.35 0 0 1 -6.38-6.37v-91.18a6.35 6.35 0 0 1 6.34-6.33h55a6.34 6.34 0 0 1 6.34 6.33v91.18a6.34 6.34 0 0 1 -6.3 6.37zm-55-101.88a4.34 4.34 0 0 0 -4.34 4.33v91.18a4.35 4.35 0 0 0 4.34 4.33h55a4.35 4.35 0 0 0 4.34-4.33v-91.18a4.34 4.34 0 0 0 -4.34-4.33z" fill="#093f68"/><rect fill="#fff" height="73.2" rx="2.56" width="54.63" x="105.02" y="125.01"/><g fill="#093f68"><path d="m157.08 199.21h-49.5a3.56 3.56 0 0 1 -3.56-3.56v-68.08a3.56 3.56 0 0 1 3.56-3.56h49.5a3.57 3.57 0 0 1 3.57 3.56v68.08a3.56 3.56 0 0 1 -3.57 3.56zm-49.5-73.21a1.56 1.56 0 0 0 -1.56 1.56v68.08a1.56 1.56 0 0 0 1.56 1.56h49.5a1.56 1.56 0 0 0 1.57-1.56v-68.07a1.56 1.56 0 0 0 -1.57-1.56z"/><circle cx="123.85" cy="117.16" r=".86"/><path d="m141.67 118.16h-13.67a1 1 0 0 1 0-2h13.72a1 1 0 0 1 0 2z"/><circle cx="132.33" cy="207.08" r="3.61"/></g><path d="m111.64 132.88h41.47v26.14h-41.47z" fill="#f56132"/><path d="m153.12 160h-41.48a1 1 0 0 1 -1-1v-26.12a1 1 0 0 1 1-1h41.48a1 1 0 0 1 1 1v26.12a1 1 0 0 1 -1 1zm-40.48-2h39.48v-24.12h-39.48z" fill="#093f68"/><rect fill="#70cc40" height="8.7" rx="4.35" width="41.47" x="111.64" y="182.37"/><path d="m148.76 192.08h-32.76a5.36 5.36 0 0 1 0-10.71h32.77a5.36 5.36 0 1 1 0 10.71zm-32.76-8.71a3.36 3.36 0 0 0 0 6.71h32.77a3.36 3.36 0 1 0 0-6.71z" fill="#093f68"/><path d="m153.12 167.33h-41.48a1 1 0 0 1 0-2h41.48a1 1 0 0 1 0 2z" fill="#dfeaef"/><path d="m143.79 175.35h-32.15a1 1 0 0 1 0-2h32.15a1 1 0 0 1 0 2z" fill="#dfeaef"/><path d="m139.52 156.53a1 1 0 0 1 -.76-.35l-12.52-14.41-13.24 13.84a1 1 0 1 1 -1.44-1.39l14-14.63a1 1 0 0 1 1.47 0l13.24 15.24a1 1 0 0 1 -.1 1.41 1 1 0 0 1 -.65.29z" fill="#093f68"/><path d="m153.11 153.81a1 1 0 0 1 -.64-.24l-8.63-7.32-6.66 6.5a1 1 0 0 1 -1.4-1.44l7.31-7.13a1 1 0 0 1 1.35 0l9.32 7.9a1 1 0 0 1 -.65 1.77z" fill="#093f68"/><path d="m92.6 214.37a1 1 0 0 1 -.94-.83 1 1 0 0 1 .85-1.17c1-.2 165.52-.06 215.9 0a1 1 0 0 1 0 2c-2.13 0-212.7-.18-215.63 0z" fill="#093f68"/><rect fill="#fff" height="26.67" rx="2.72" width="34.91" x="273.49" y="162.43"/><path d="m305.69 190.1h-29.48a3.73 3.73 0 0 1 -3.72-3.72v-21.23a3.73 3.73 0 0 1 3.72-3.72h29.48a3.73 3.73 0 0 1 3.72 3.72v21.23a3.73 3.73 0 0 1 -3.72 3.72zm-29.48-26.67a1.72 1.72 0 0 0 -1.72 1.72v21.23a1.72 1.72 0 0 0 1.72 1.72h29.48a1.72 1.72 0 0 0 1.72-1.72v-21.23a1.72 1.72 0 0 0 -1.72-1.72z" fill="#093f68"/><path d="m302.34 170.53h-21.4a1 1 0 0 1 0-2h21.4a1 1 0 0 1 0 2z" fill="#dfeaef"/><path d="m302.34 176.76h-21.4a1 1 0 0 1 0-2h21.4a1 1 0 0 1 0 2z" fill="#dfeaef"/><path d="m296.48 183h-15.54a1 1 0 0 1 0-2h15.54a1 1 0 0 1 0 2z" fill="#dfeaef"/><path d="m313.31 184.34-12.21 12.21-6.93-19.14z" fill="#fff"/><path d="m301.1 197.55h-.22a1 1 0 0 1 -.72-.63l-6.93-19.14a1 1 0 0 1 1.28-1.28l19.14 6.93a1 1 0 0 1 .35 1.57l-12.21 12.21a1 1 0 0 1 -.69.34zm-5.26-18.47 5.67 15.65 10-10z" fill="#093f68"/><path d="m307.21 190.44 4.11 4.11" fill="#fff"/><path d="m311.32 195.55a1 1 0 0 1 -.71-.29l-4.11-4.11a1 1 0 0 1 0-1.42 1 1 0 0 1 1.41 0l4.11 4.12a1 1 0 0 1 0 1.41 1 1 0 0 1 -.7.29z" fill="#093f68"/></svg>